<svg width="942" height="1203" viewBox="0 0 942 1203" fill="none" xmlns="http://www.w3.org/2000/svg">
<path d="M880.677 6.27083C867.644 -26.0868 836.742 -47 801.942 -47C767.142 -47 736.244 -26.0868 723.207 6.27083L674.471 127.264L625.735 6.27083C612.702 -26.0868 581.8 -47 547 -47C512.2 -47 481.302 -26.0868 468.265 6.27083L419.529 127.264L370.793 6.27083C357.76 -26.0868 326.858 -47 292.058 -47C257.258 -47 226.36 -26.0868 213.323 6.27083L15.9027 496.368C5.29976 522.694 0 550.34 0 578C0 605.66 5.29976 633.316 15.9027 659.635L213.316 1149.73C226.349 1182.09 257.258 1203 292.058 1203C326.858 1203 357.767 1182.09 370.8 1149.73L419.529 1028.75L468.258 1149.73C481.291 1182.09 512.2 1203 547 1203C581.8 1203 612.709 1182.09 625.742 1149.73L674.471 1028.75L723.2 1149.73C736.234 1182.09 767.142 1203 801.942 1203C836.742 1203 867.651 1182.09 880.684 1149.73L1078.1 659.635C1088.7 633.316 1094 605.653 1094 578C1094 550.347 1088.7 522.694 1078.1 496.368L880.677 6.27083ZM536.975 34.1146C538.633 29.993 542.573 27.3264 547.003 27.3264C551.434 27.3264 555.374 29.993 557.032 34.1146L634.517 226.462L547.007 443.708L459.497 226.462L536.982 34.1146H536.975ZM584.064 576.854C584.209 559.014 587.653 541.191 594.49 524.215L674.475 325.66L754.459 524.215C768.423 558.896 768.441 597.104 754.459 631.785L674.475 830.347L594.49 631.785C587.646 614.809 584.206 596.986 584.064 579.149C584.064 578.764 584.119 578.382 584.119 578C584.119 577.618 584.067 577.236 584.064 576.854ZM509.94 579.149C509.798 596.99 506.36 614.809 499.513 631.785L419.529 830.347L339.544 631.785C325.563 597.104 325.58 558.896 339.544 524.215L419.529 325.66L499.513 524.215C506.35 541.191 509.791 559.014 509.94 576.854C509.94 577.236 509.884 577.618 509.884 578C509.884 578.382 509.936 578.767 509.94 579.149ZM302.093 1121.89C300.431 1126 296.492 1128.67 292.058 1128.67C287.623 1128.67 283.684 1126 282.023 1121.89L84.6023 631.788C70.6207 597.108 70.638 558.899 84.6023 524.219L282.033 34.1146C283.691 29.993 287.63 27.3264 292.061 27.3264C296.492 27.3264 300.431 29.993 302.09 34.1146L379.575 226.462L270.852 496.368C260.245 522.694 254.949 550.34 254.949 578C254.949 605.66 260.249 633.316 270.852 659.635L379.575 929.549L302.1 1121.88L302.093 1121.89ZM557.035 1121.89C555.374 1126 551.434 1128.67 547 1128.67C542.566 1128.67 538.626 1126 536.965 1121.89L459.49 929.552L547 712.299L634.51 929.552L557.035 1121.89ZM1009.4 631.788L811.977 1121.89C810.316 1126 806.377 1128.67 801.942 1128.67C797.508 1128.67 793.568 1126 791.907 1121.89L714.432 929.552L823.155 659.639C833.761 633.319 839.058 605.656 839.058 578.003C839.058 550.351 833.758 522.698 823.155 496.372L714.432 226.465L791.917 34.118C793.575 29.9965 797.515 27.3299 801.946 27.3299C806.377 27.3299 810.316 29.9965 811.974 34.118L1009.4 524.219C1023.37 558.899 1023.38 597.108 1009.4 631.788H1009.4Z" fill="black" fill-opacity="0.05"/>
</svg>
