<svg width="1440" height="1940" viewBox="0 0 1440 1940" fill="none" xmlns="http://www.w3.org/2000/svg">
<path d="M1239.12 82.6763C1218.84 32.4573 1170.76 0 1116.62 0C1062.48 0 1014.41 32.4573 994.133 82.6763L918.311 270.458L842.489 82.6763C822.213 32.4573 774.137 0 719.997 0C665.857 0 617.787 32.4573 597.505 82.6763L521.684 270.458L445.862 82.6763C425.586 32.4573 377.51 0 323.37 0C269.23 0 221.16 32.4573 200.878 82.6763L-106.259 843.307C-122.755 884.166 -131 927.072 -131 970C-131 1012.93 -122.755 1055.85 -106.259 1096.7L200.867 1857.32C221.143 1907.55 269.23 1940 323.37 1940C377.51 1940 425.597 1907.55 445.873 1857.32L521.684 1669.57L597.495 1857.32C617.771 1907.55 665.857 1940 719.997 1940C774.137 1940 822.224 1907.55 842.5 1857.32L918.311 1669.57L994.122 1857.32C1014.4 1907.55 1062.48 1940 1116.62 1940C1170.76 1940 1218.85 1907.55 1239.13 1857.32L1546.25 1096.7C1562.75 1055.85 1570.99 1012.92 1570.99 970C1570.99 927.083 1562.75 884.166 1546.25 843.307L1239.12 82.6763ZM704.401 125.89C706.981 119.493 713.109 115.355 720.003 115.355C726.896 115.355 733.025 119.493 735.604 125.89L856.152 424.413L720.008 761.579L583.864 424.413L704.412 125.89H704.401ZM777.659 968.222C777.885 940.533 783.244 912.872 793.88 886.526L918.316 578.368L1042.75 886.526C1064.48 940.35 1064.5 999.65 1042.75 1053.47L918.316 1361.64L793.88 1053.47C783.233 1027.13 777.88 999.466 777.659 971.784C777.659 971.186 777.745 970.593 777.745 970C777.745 969.407 777.665 968.814 777.659 968.222ZM662.341 971.784C662.12 999.472 656.772 1027.13 646.12 1053.47L521.684 1361.64L397.248 1053.47C375.496 999.65 375.523 940.35 397.248 886.526L521.684 578.368L646.12 886.526C656.756 912.872 662.109 940.533 662.341 968.222C662.341 968.814 662.255 969.407 662.255 970C662.255 970.593 662.335 971.191 662.341 971.784ZM338.982 1814.11C336.397 1820.5 330.269 1824.63 323.37 1824.64C316.471 1824.64 310.343 1820.5 307.758 1814.11L0.620281 1053.48C-21.1315 999.655 -21.1046 940.356 0.620281 886.531L307.774 125.89C310.353 119.493 316.482 115.355 323.375 115.355C330.269 115.355 336.397 119.493 338.977 125.89L459.525 424.413L290.379 843.307C273.878 884.166 265.638 927.072 265.638 970C265.638 1012.93 273.883 1055.85 290.379 1096.7L459.525 1515.6L338.993 1814.1L338.982 1814.11ZM735.61 1814.11C733.025 1820.5 726.896 1824.63 719.997 1824.64C713.099 1824.64 706.97 1820.5 704.385 1814.11L583.853 1515.61L719.997 1178.43L856.141 1515.61L735.61 1814.11ZM1439.37 1053.48L1132.24 1814.11C1129.65 1820.5 1123.52 1824.63 1116.62 1824.64C1109.73 1824.64 1103.6 1820.5 1101.01 1814.11L980.481 1515.61L1149.63 1096.7C1166.13 1055.86 1174.37 1012.92 1174.37 970.005C1174.37 927.088 1166.12 884.171 1149.63 843.313L980.481 424.418L1101.03 125.895C1103.61 119.499 1109.74 115.36 1116.63 115.36C1123.52 115.36 1129.65 119.499 1132.23 125.895L1439.38 886.531C1461.1 940.356 1461.13 999.655 1439.38 1053.48H1439.37Z" fill="white" fill-opacity="0.1"/>
</svg>
