<svg width="32" height="32" viewBox="0 0 32 32" fill="none" xmlns="http://www.w3.org/2000/svg">
<rect width="32" height="32" rx="5" fill="#0086D6"/>
<path fill-rule="evenodd" clip-rule="evenodd" d="M24.1651 9C24.7644 9 25.2966 9.26096 25.6314 9.66459L15.9063 17.0735L6.26785 9.79913C6.59012 9.31989 7.17137 9 7.83486 9H24.1651ZM6 21.3333V11.1138L12.9159 16.3333L6.01426 21.5421C6.00485 21.4737 6 21.404 6 21.3333ZM6.6325 22.5923C6.95452 22.8463 7.37493 23 7.83486 23H24.1651C24.5605 23 24.9266 22.8864 25.2261 22.6933L17.8772 17.0947L16.5557 18.1015C16.1819 18.3862 15.6374 18.3873 15.2622 18.1042L13.9208 17.0917L6.6325 22.5923ZM18.8766 16.3333L25.9499 21.722C25.9826 21.5973 26 21.4671 26 21.3333V10.9065L18.8766 16.3333Z" fill="white"/>
</svg>
