<svg width="20" height="12" viewBox="0 0 20 12" fill="none" xmlns="http://www.w3.org/2000/svg">
<g clip-path="url(#clip0_509_229)">
<path d="M19.3371 5.60733C19.3371 5.60733 19.3263 5.59633 19.3219 5.59193L14.0171 0.218005C13.8065 -0.0394679 13.4309 -0.0724773 13.1768 0.140983C12.9227 0.354444 12.8902 0.735152 13.1008 0.992625C13.1247 1.02123 13.1486 1.04544 13.1768 1.06965L17.4632 5.41808H1.09714C0.767086 5.41808 0.5 5.68876 0.5 6.02325C0.5 6.35775 0.767086 6.62842 1.09714 6.62842H17.4632L13.1703 10.9725C12.9466 11.2101 12.9466 11.5864 13.1703 11.8241C13.4026 12.0596 13.7761 12.0596 14.0085 11.8241L19.3176 6.44137C19.5499 6.2147 19.5565 5.8406 19.3328 5.60513L19.3371 5.60733Z" fill="white"/>
</g>
<defs>
<clipPath id="clip0_509_229">
<rect width="19" height="12" fill="white" transform="translate(0.5)"/>
</clipPath>
</defs>
</svg>
