<svg width="50" height="50" viewBox="0 0 50 50" fill="none" xmlns="http://www.w3.org/2000/svg">
<rect x="49.5" y="49.5" width="49" height="49" rx="24.5" transform="rotate(-180 49.5 49.5)" stroke="white"/>
<path d="M11.2346 25.5794C11.2346 25.5794 11.2506 25.5956 11.257 25.6021L19.0761 33.5231C19.3866 33.9026 19.9403 33.9513 20.3148 33.6367C20.6892 33.322 20.7372 32.7609 20.4268 32.3814C20.3916 32.3392 20.3564 32.3035 20.3148 32.2678L13.9967 25.8584L38.1198 25.8584C38.6063 25.8584 39 25.4594 39 24.9664C39 24.4733 38.6063 24.0744 38.1198 24.0744L13.9967 24.0744L20.3244 17.6714C20.654 17.3211 20.654 16.7664 20.3244 16.4161C19.9819 16.069 19.4314 16.069 19.0889 16.4161L11.2634 24.3501C10.9209 24.6842 10.9113 25.2356 11.241 25.5827L11.2346 25.5794Z" fill="white"/>
</svg>
