<svg width="38" height="39" viewBox="0 0 38 39" fill="none" xmlns="http://www.w3.org/2000/svg">
<path d="M32.9996 31.6039L25.4476 24.0519C27.2624 21.8732 28.1674 19.0787 27.9743 16.2498C27.7812 13.4208 26.5049 10.7753 24.4109 8.86339C22.3169 6.95152 19.5664 5.92055 16.7316 5.98496C13.8968 6.04937 11.196 7.20421 9.19097 9.20922C7.18596 11.2142 6.03112 13.9151 5.96671 16.7498C5.9023 19.5846 6.93327 22.3351 8.84514 24.4291C10.757 26.5231 13.4026 27.7994 16.2315 27.9925C19.0605 28.1856 21.8549 27.2807 24.0336 25.4659L31.5856 33.0179L32.9996 31.6039ZM7.99963 17.0179C7.99963 15.2378 8.52747 13.4978 9.5164 12.0177C10.5053 10.5377 11.9109 9.38415 13.5555 8.70296C15.2 8.02177 17.0096 7.84354 18.7554 8.19081C20.5013 8.53808 22.1049 9.39524 23.3636 10.6539C24.6223 11.9126 25.4794 13.5162 25.8267 15.2621C26.174 17.0079 25.9957 18.8175 25.3145 20.462C24.6334 22.1066 23.4798 23.5122 21.9998 24.5011C20.5197 25.49 18.7797 26.0179 16.9996 26.0179C14.6135 26.0152 12.3258 25.0662 10.6386 23.3789C8.95134 21.6917 8.00227 19.404 7.99963 17.0179Z" fill="#0086D6"/>
</svg>
