<svg width="50" height="50" viewBox="0 0 50 50" fill="none" xmlns="http://www.w3.org/2000/svg">
<rect x="0.5" y="0.5" width="49" height="49" rx="24.5" stroke="white"/>
<path d="M37.2905 24.4824C37.2905 24.4824 37.2763 24.4679 37.2705 24.4621L30.2892 17.3898C30.012 17.0509 29.5176 17.0075 29.1833 17.2884C28.8489 17.5693 28.806 18.0704 29.0832 18.4092C29.1147 18.4469 29.1461 18.4787 29.1833 18.5106L34.8244 24.2333H13.2859C12.8515 24.2333 12.5 24.5895 12.5 25.0297C12.5 25.47 12.8515 25.8262 13.2859 25.8262H34.8244L29.1747 31.5431C28.8803 31.8559 28.8803 32.3511 29.1747 32.6639C29.4805 32.9738 29.972 32.9738 30.2778 32.6639L37.2648 25.58C37.5706 25.2817 37.5792 24.7894 37.2848 24.4795L37.2905 24.4824Z" fill="white"/>
</svg>
