<?xml version="1.0" encoding="UTF-8"?>
<svg id="Layer_2" data-name="Layer 2" xmlns="http://www.w3.org/2000/svg" viewBox="0 0 117.93 28.17">
  <defs>
    <style>
      .cls-1 {
        fill: #151515;
        stroke-width: .25px;
      }

      .cls-1, .cls-2 {
        stroke: #9b9b9b;
        stroke-miterlimit: 10;
      }

      .cls-3, .cls-4 {
        stroke-width: 0px;
      }

      .cls-2 {
        fill: #efefef;
        stroke-width: .17px;
      }

      .cls-4 {
        fill: #fff;
      }
    </style>
  </defs>
  <g id="Layer_1-2" data-name="Layer 1">
    <g>
      <rect class="cls-2" x=".09" y=".09" width="117.76" height="27.99" rx="14" ry="14"/>
      <g>
        <g>
          <circle class="cls-1" cx="14.16" cy="14.08" r="12.35"/>
          <g id="Layer_1-2" data-name="Layer 1-2">
            <g>
              <path class="cls-4" d="M12.52,16.39c-.07,0-.14-.03-.2-.08l-2.04-2.04h0c-.27-.3-.42-.69-.42-1.1s.15-.8.42-1.1h0s.11-.12.11-.12l6.49-6.49c.08-.08.2-.1.31-.06.11.04.17.15.17.26v1.7c0,.21-.08.41-.23.57l-5.08,5.08s-.07.1-.07.17.02.12.07.17l.75.75v2.02c0,.11-.07.22-.17.26-.03.01-.07.02-.11.02ZM10.43,14.12l2.04,2.04s.06.02.07.01c.01,0,.04-.02.04-.06v-1.93l-.69-.69c-.09-.09-.13-.2-.13-.32s.05-.24.13-.32l5.08-5.08c.11-.11.17-.26.17-.41v-1.7s-.03-.05-.04-.06c-.01,0-.04-.01-.07.01l-6.49,6.49-.11.11c-.23.26-.36.6-.36.95s.13.69.36.95Z"/>
              <path class="cls-4" d="M10.13,22.79s-.07,0-.11-.02c-.11-.04-.17-.15-.17-.26v-1.7c0-.21.08-.41.23-.57l5.08-5.08c.09-.09.09-.24,0-.34l-.75-.75v-2.02c0-.11.07-.22.17-.26.11-.04.23-.02.31.06l2.04,2.04h0c.27.3.42.69.42,1.1s-.15.8-.42,1.1h0s-.11.12-.11.12l-6.49,6.49c-.05.05-.13.08-.2.08ZM14.63,13.98l.69.69c.18.18.18.47,0,.64l-5.08,5.08c-.11.11-.17.26-.17.41v1.7s.03.05.04.06c.01,0,.04.01.07-.01l6.49-6.49.11-.11c.23-.26.36-.6.36-.95s-.13-.69-.36-.95l-2.04-2.04s-.06-.02-.07-.01c-.01,0-.04.02-.04.06v1.93Z"/>
            </g>
          </g>
        </g>
        <g>
          <path class="cls-3" d="M39.73,11.09c.48.35.81.84,1.01,1.46h-.64c-.16-.44-.43-.79-.8-1.04-.37-.26-.84-.39-1.39-.39-.42,0-.8.1-1.14.31s-.61.5-.81.89-.29.83-.29,1.35.1.96.29,1.34c.2.38.46.68.81.88s.72.31,1.14.31c.55,0,1.02-.13,1.39-.39.37-.26.64-.61.8-1.04h.64c-.2.62-.53,1.11-1.01,1.46-.48.35-1.08.53-1.81.53-.56,0-1.06-.13-1.49-.4-.44-.26-.78-.63-1.02-1.1-.24-.47-.36-1-.36-1.6s.12-1.14.36-1.61c.24-.47.58-.84,1.02-1.1.44-.26.93-.39,1.49-.39.73,0,1.33.18,1.81.53Z"/>
          <path class="cls-3" d="M43.12,12.18c.3-.18.68-.28,1.11-.28v.66h-.2c-.45,0-.83.12-1.13.37-.3.24-.45.64-.45,1.19v2.58h-.61v-4.71h.61v.98c.14-.34.36-.6.66-.79Z"/>
          <path class="cls-3" d="M48.24,12.3c.34.25.57.58.69.98v-1.29h.6v4.71h-.6v-1.29c-.13.41-.36.74-.69.98s-.74.37-1.22.37c-.43,0-.81-.1-1.14-.29-.34-.2-.6-.48-.78-.84-.19-.36-.28-.79-.28-1.28s.09-.92.28-1.29c.19-.37.45-.64.78-.84.33-.19.72-.29,1.15-.29.48,0,.88.12,1.22.37ZM45.91,12.97c-.32.34-.48.79-.48,1.38s.16,1.04.48,1.38c.32.34.74.5,1.27.5.33,0,.63-.08.9-.23.27-.16.48-.38.63-.66.15-.28.23-.61.23-.99s-.08-.7-.23-.99-.36-.5-.63-.66c-.27-.16-.57-.23-.9-.23-.53,0-.95.17-1.27.5Z"/>
          <path class="cls-3" d="M51.91,10.98c-.18.16-.26.44-.26.82v.19h1.18v.54h-1.18v4.18h-.6v-4.18h-.7v-.54h.7v-.23c0-.53.14-.93.43-1.19.29-.26.74-.39,1.35-.36v.53c-.44,0-.74.07-.92.24Z"/>
          <path class="cls-3" d="M55.87,16.16v.54h-.56c-.45,0-.79-.11-1.02-.32-.22-.22-.34-.58-.34-1.09v-2.77h-.72v-.53h.72v-1.19h.61v1.19h1.29v.53h-1.29v2.78c0,.33.06.56.18.69.12.12.33.19.64.19h.48Z"/>
          <path class="cls-3" d="M59.99,15.94c.29-.21.46-.5.52-.86h.64c-.09.5-.33.91-.72,1.22-.39.31-.89.47-1.48.47-.45,0-.85-.1-1.19-.29-.35-.19-.62-.47-.82-.84s-.29-.79-.29-1.29.1-.92.29-1.29.47-.64.82-.84c.35-.19.75-.29,1.19-.29s.86.1,1.19.29c.34.19.59.45.77.77s.26.67.26,1.05c0,.16-.01.31-.03.44h-3.9c0,.4.09.73.25,1s.36.46.62.59c.25.13.53.19.82.19.43,0,.78-.11,1.07-.32ZM58.11,12.61c-.25.13-.46.32-.62.58-.16.26-.24.59-.25.98h3.33c.02-.39-.04-.71-.19-.97-.15-.26-.35-.46-.6-.59-.25-.13-.53-.19-.83-.19s-.58.06-.84.19Z"/>
          <path class="cls-3" d="M65.46,12.3c.34.25.57.58.69.98v-2.97h.61v6.38h-.61v-1.29c-.12.41-.35.74-.69.98-.34.25-.74.37-1.22.37-.43,0-.81-.1-1.14-.29-.34-.2-.6-.48-.79-.84-.19-.36-.28-.79-.28-1.28s.09-.92.28-1.29c.19-.37.45-.64.78-.84.33-.19.71-.29,1.15-.29.48,0,.88.12,1.22.37ZM63.12,12.97c-.32.34-.48.79-.48,1.38s.16,1.04.48,1.38c.32.34.74.5,1.27.5.33,0,.63-.08.9-.23s.48-.38.63-.66c.15-.28.23-.61.23-.99s-.08-.7-.23-.99-.36-.5-.63-.66-.57-.23-.9-.23c-.53,0-.95.17-1.27.5Z"/>
          <path class="cls-3" d="M74.02,14.08c.24.28.35.6.35.98,0,.49-.17.88-.5,1.19-.33.3-.82.45-1.45.45h-2.11v-6.08h2.09c.61,0,1.07.14,1.38.41.31.27.46.64.46,1.1,0,.4-.11.71-.32.95-.21.24-.49.4-.82.47.38.07.69.25.92.53ZM70.92,13.34h1.4c.42,0,.75-.1.97-.3.22-.2.33-.47.33-.82s-.11-.61-.33-.8c-.22-.2-.55-.29-1.01-.29h-1.36v2.21ZM73.38,15.87c.25-.21.38-.5.38-.88s-.13-.66-.39-.88c-.26-.22-.62-.32-1.07-.32h-1.38v2.39h1.4c.45,0,.81-.1,1.06-.31Z"/>
          <path class="cls-3" d="M75.53,11.99l1.64,3.93,1.51-3.93h.67l-2.77,6.94h-.69l.95-2.28-1.98-4.66h.67Z"/>
          <path class="cls-3" d="M83.22,16.55c-.31-.14-.56-.34-.74-.59-.18-.25-.27-.54-.28-.87h.84c.03.28.15.52.35.71.2.19.5.29.89.29s.67-.09.88-.28c.22-.19.32-.43.32-.72,0-.23-.06-.42-.19-.56-.13-.14-.29-.25-.47-.33s-.45-.16-.77-.24c-.4-.1-.71-.21-.95-.31-.24-.1-.44-.27-.61-.49-.17-.22-.25-.52-.25-.89,0-.33.08-.62.25-.87s.4-.45.7-.59c.3-.14.65-.21,1.04-.21.56,0,1.02.14,1.38.42s.56.66.61,1.12h-.86c-.03-.23-.15-.43-.36-.61-.21-.18-.5-.26-.85-.26-.33,0-.6.08-.8.25-.21.17-.31.41-.31.71,0,.22.06.4.19.54.12.14.28.24.46.31.18.07.44.15.76.25.4.11.72.22.96.32s.45.27.62.49.26.52.26.9c0,.29-.08.57-.23.83-.16.26-.38.47-.69.63-.3.16-.66.24-1.08.24s-.75-.07-1.07-.21Z"/>
          <path class="cls-3" d="M91.73,14.63h-3.78c.03.47.19.83.48,1.09.29.26.64.39,1.06.39.34,0,.62-.08.85-.24s.39-.37.48-.63h.85c-.13.45-.38.82-.76,1.11-.38.29-.85.43-1.42.43-.45,0-.85-.1-1.2-.3-.35-.2-.63-.49-.83-.86-.2-.37-.3-.8-.3-1.29s.1-.92.29-1.29.47-.65.82-.85c.35-.2.76-.3,1.22-.3s.85.1,1.19.29c.34.2.61.46.8.81s.28.73.28,1.16c0,.15,0,.31-.03.47ZM90.74,13.22c-.13-.22-.31-.38-.54-.49-.23-.11-.48-.17-.75-.17-.4,0-.74.13-1.01.38-.28.25-.44.6-.48,1.05h2.99c0-.3-.07-.56-.2-.77Z"/>
          <path class="cls-3" d="M96.49,12.41c.36.35.54.85.54,1.51v2.79h-.78v-2.67c0-.47-.12-.83-.35-1.08-.24-.25-.56-.38-.97-.38s-.74.13-.99.39c-.25.26-.37.64-.37,1.13v2.61h-.79v-4.73h.79v.67c.16-.24.37-.43.63-.56.27-.13.56-.2.88-.2.58,0,1.04.17,1.4.52Z"/>
          <path class="cls-3" d="M99.01,16.59c-.29-.12-.51-.3-.68-.52-.17-.22-.26-.48-.28-.76h.81c.02.24.13.43.33.58s.46.22.78.22c.3,0,.54-.07.71-.2.17-.13.26-.3.26-.5s-.09-.36-.28-.46c-.18-.1-.47-.2-.85-.3-.35-.09-.64-.19-.86-.28-.22-.1-.41-.24-.57-.42s-.24-.43-.24-.74c0-.24.07-.46.22-.66s.35-.36.61-.48c.26-.12.57-.18.91-.18.52,0,.95.13,1.27.4.32.26.49.63.52,1.09h-.79c-.02-.25-.12-.45-.3-.6-.18-.15-.42-.22-.73-.22-.28,0-.51.06-.67.18-.17.12-.25.28-.25.47,0,.16.05.28.15.38.1.1.23.18.38.24.15.06.36.13.63.2.34.09.62.18.83.27s.4.22.55.4c.15.18.23.41.24.7,0,.26-.07.49-.22.7s-.35.37-.61.49c-.26.12-.56.18-.9.18-.36,0-.69-.06-.97-.19Z"/>
          <path class="cls-3" d="M103.67,16.48c-.36-.2-.64-.49-.85-.86-.2-.37-.31-.8-.31-1.29s.1-.91.31-1.28c.21-.37.5-.66.86-.85.36-.2.77-.3,1.22-.3s.85.1,1.22.3c.36.2.65.48.86.85s.32.8.32,1.29-.11.92-.32,1.29c-.22.37-.51.66-.88.86-.37.2-.78.3-1.22.3s-.84-.1-1.2-.3ZM105.67,15.89c.25-.13.45-.33.6-.6.15-.26.23-.59.23-.97s-.07-.7-.22-.97c-.15-.26-.35-.46-.59-.59s-.5-.19-.79-.19-.55.06-.79.19c-.24.13-.43.33-.57.59-.14.26-.22.59-.22.97s.07.71.21.98c.14.26.33.46.56.59.24.13.5.19.78.19s.55-.07.79-.2Z"/>
        </g>
      </g>
    </g>
  </g>
</svg>